<svg xmlns="http://www.w3.org/2000/svg" width="30" height="30" fill="none" class="t-sociallinks__svg" viewBox="0 0 100 100"><path fill="#fff" fill-rule="evenodd" d="M50 100c27.614 0 50-22.386 50-50S77.614 0 50 0 0 22.386 0 50s22.386 50 50 50Zm1.828-50.792L74.19 33.69A4.147 4.147 0 0 0 70.847 32H29.153c-1.32 0-2.495.616-3.256 1.575l21.691 15.597a3.674 3.674 0 0 0 4.24.036ZM75 63.67V37.629L53.467 52.57a6.55 6.55 0 0 1-7.557-.063L25 37.472V63.67a4.153 4.153 0 0 0 4.153 4.153h41.694A4.153 4.153 0 0 0 75 63.671Z" clip-rule="evenodd"/></svg>